<?xml version="1.0" encoding="utf-8"?>
<!-- Generator: Adobe Illustrator 16.0.0, SVG Export Plug-In . SVG Version: 6.00 Build 0)  -->
<!DOCTYPE svg PUBLIC "-//W3C//DTD SVG 1.1//EN" "http://www.w3.org/Graphics/SVG/1.1/DTD/svg11.dtd">
<svg version="1.1" id="Layer_1" xmlns="http://www.w3.org/2000/svg" xmlns:xlink="http://www.w3.org/1999/xlink" x="0px" y="0px"
	 width="608px" height="508px" viewBox="0 0 608 508" enable-background="new 0 0 608 508" xml:space="preserve">
<g>
	<path fill-rule="evenodd" clip-rule="evenodd" fill="#FFFFFF" d="M155.574,216.498c2.78,0,5.561,0,8.34,0
		c126.663,0.001,253.326,0.031,379.99-0.048c11.488-0.007,21.822,2.578,29.969,11.092c10.682,11.167,13.511,24.383,8.281,38.748
		c-5.188,14.245-15.882,22.23-31.047,23.827c-3.963,0.417-7.984,0.367-11.978,0.367c-125.329,0.013-250.659,0.004-375.989-0.001
		c-1.812,0-3.625,0-6.969,0c2.909,2.946,4.892,4.985,6.907,6.991c41.211,41.038,82.433,82.064,123.635,123.111
		c10.629,10.589,14.093,23.373,9.841,37.601c-4.082,13.657-13.63,22.451-27.683,25.29c-13.088,2.644-24.687-0.847-34.296-10.472
		c-38.385-38.446-76.815-76.849-115.231-115.265c-25.571-25.571-51.113-51.173-76.732-76.696
		c-17.669-17.604-17.854-39.182-0.262-56.779c63.037-63.058,126.089-126.1,189.15-189.133c14.961-14.954,37.814-15.37,52.486-1.021
		c14.943,14.615,15.236,37.692,0.132,52.822c-41.796,41.868-83.788,83.54-125.723,125.269c-1.058,1.053-2.363,1.857-3.553,2.777
		C155.086,215.485,155.33,215.992,155.574,216.498z"/>
</g>
</svg>
