<?xml version="1.0" encoding="utf-8"?>
<!-- Generator: Adobe Illustrator 16.0.0, SVG Export Plug-In . SVG Version: 6.00 Build 0)  -->
<!DOCTYPE svg PUBLIC "-//W3C//DTD SVG 1.1//EN" "http://www.w3.org/Graphics/SVG/1.1/DTD/svg11.dtd">
<svg version="1.1" id="Layer_1" xmlns="http://www.w3.org/2000/svg" xmlns:xlink="http://www.w3.org/1999/xlink" x="0px" y="0px"
	 width="85.5px" height="292.527px" viewBox="0 0 85.5 292.527" enable-background="new 0 0 85.5 292.527" xml:space="preserve">
<g id="Layer_1_1_" display="none">
	<g display="inline">
		<g>
			<g>
				<defs>
					<rect id="SVGID_1_" x="-218.956" y="-39.908" width="527.397" height="703.197"/>
				</defs>
				<clipPath id="SVGID_2_">
					<use xlink:href="#SVGID_1_"  overflow="visible"/>
				</clipPath>
				<g transform="matrix(1 0 0 1 -1.525879e-05 0)" clip-path="url(#SVGID_2_)">
					
						<image overflow="visible" enable-background="new    " width="1943" height="2591" xlink:href="6A36E8C5F2019A0.jpg"  transform="matrix(0.2714 0 0 0.2714 -218.9336 -39.9246)">
					</image>
				</g>
			</g>
		</g>
	</g>
</g>
<g id="Layer_4" display="none">
	<rect x="-326.893" y="-143.888" display="inline" width="689.965" height="899.956"/>
</g>
<g id="Layer_2">
	<polygon fill="#7FF221" points="0,0 0,292.528 85.5,197 85.5,74 	"/>
	<polygon fill="#7FF221" points="-6.333,317.863 181.666,317.863 181.666,393.834 -6.333,393.834 -6.333,650.834 -86.333,650.834 
		-86.333,407.245 	"/>
	<polygon fill="#7FF221" points="126.225,151.5 208.667,151.5 208.994,59.023 	"/>
	<path fill="#7FF221" d="M267-5.667"/>
	<path fill="#7FF221" d="M-165,477"/>
</g>
<g id="Layer_3" display="none">
	<line display="inline" fill="none" stroke="#ED1C24" stroke-miterlimit="10" x1="-80" y1="381.911" x2="352" y2="-100.755"/>
</g>
</svg>
